<?xml version="1.0" standalone="no"?>
<!DOCTYPE svg PUBLIC "-//W3C//DTD SVG 20010904//EN"
 "http://www.w3.org/TR/2001/REC-SVG-20010904/DTD/svg10.dtd">
<svg version="1.0" xmlns="http://www.w3.org/2000/svg"
 width="984.000000pt" height="984.000000pt" viewBox="0 0 984.000000 984.000000"
 preserveAspectRatio="xMidYMid meet">
<metadata>
Created by potrace 1.14, written by Peter Selinger 2001-2017
</metadata>
<g transform="translate(0.000000,984.000000) scale(0.100000,-0.100000)"
fill="#000000" stroke="none">
<path d="M1295 9833 c-38 -5 -34 -7 105 -62 714 -284 1492 -741 2160 -1269 79
-63 309 -252 345 -284 6 -5 -38 -56 -112 -131 -129 -130 -148 -156 -139 -190
3 -12 191 -208 418 -434 354 -354 418 -413 442 -413 24 0 54 24 166 136 l137
136 125 -144 c617 -710 1137 -1524 1474 -2303 l69 -160 3 160 c2 88 -2 225 -8
305 -69 910 -425 1805 -1031 2596 l-77 101 59 59 c101 100 127 61 -354 542
-479 479 -437 452 -542 351 l-64 -61 -143 104 c-407 298 -828 525 -1271 687
-360 132 -695 211 -1077 257 -132 15 -602 27 -685 17z"/>
<path d="M7456 8163 c-16 -54 -496 -1955 -496 -1965 1 -7 144 275 318 627 491
988 596 1204 589 1211 -8 8 -379 143 -394 144 -6 0 -14 -8 -17 -17z"/>
<path d="M1925 5899 c-944 -943 -1736 -1740 -1760 -1772 -197 -262 -67 -629
252 -712 31 -8 77 -15 101 -15 71 0 176 29 230 63 30 19 743 723 1759 1737
939 938 1722 1721 1740 1741 l32 35 -318 318 -318 318 -1718 -1713z"/>
<path d="M8380 6640 c-349 -208 -746 -445 -882 -526 -136 -82 -246 -149 -244
-151 2 -2 108 33 237 77 129 44 563 190 964 326 402 135 735 249 741 252 8 5
-19 73 -79 205 -49 108 -93 197 -96 196 -3 0 -292 -171 -641 -379z"/>
<path d="M4020 5299 l0 -160 43 6 c23 3 326 35 672 70 674 70 774 81 780 87 2
2 -136 18 -308 36 -172 19 -499 53 -729 78 -229 24 -426 44 -437 44 -20 0 -21
-4 -21 -161z"/>
<path d="M7665 5416 c-123 -57 -188 -173 -340 -601 -125 -354 -205 -526 -360
-775 -247 -399 -508 -723 -866 -1076 -460 -452 -901 -781 -1904 -1424 -805
-515 -1174 -772 -1537 -1067 -148 -121 -377 -325 -463 -412 l-59 -61 3822 0
3822 0 0 2154 0 2155 -252 157 c-139 86 -320 198 -403 249 -82 51 -307 191
-500 311 -502 311 -518 321 -581 349 -158 70 -288 84 -379 41z"/>
<path d="M5400 4862 c-135 -108 -394 -318 -577 -465 -183 -147 -335 -273 -339
-278 -6 -10 202 -229 217 -229 5 0 899 1098 937 1152 7 10 12 18 10 18 -2 0
-114 -89 -248 -198z"/>
</g>
</svg>
